<svg width="20" height="20" viewBox="0 0 20 20" fill="none" xmlns="http://www.w3.org/2000/svg">
<mask id="mask0_8384_256677" style="mask-type:alpha" maskUnits="userSpaceOnUse" x="0" y="0" width="20" height="20">
<path d="M10 20C15.5228 20 20 15.5228 20 10C20 4.47715 15.5228 0 10 0C4.47715 0 0 4.47715 0 10C0 15.5228 4.47715 20 10 20Z" fill="white"/>
</mask>
<g mask="url(#mask0_8384_256677)">
<path d="M0 0H20V20H0V0Z" fill="#0052B4"/>
<path d="M10 3.91406L10.3242 4.91016H11.3672L10.5195 5.52344L10.8437 6.52344L9.99609 5.90625L9.14844 6.52344L9.47266 5.52344L8.625 4.91016H9.67187L10 3.91406ZM5.69531 5.69531L6.63281 6.17187L7.37109 5.42969L7.20703 6.46484L8.14062 6.94141L7.10547 7.10547L6.94141 8.14062L6.46484 7.20312L5.42969 7.37109L6.17187 6.62891L5.69531 5.69531ZM3.91406 10L4.91016 9.67578V8.63281L5.52344 9.48047L6.52344 9.15625L5.90625 10.0039L6.52344 10.8516L5.52344 10.5273L4.91016 11.375V10.3281L3.91406 10ZM5.69531 14.3047L6.17187 13.3672L5.42969 12.6289L6.46484 12.793L6.94141 11.8594L7.10547 12.8945L8.14062 13.0586L7.20312 13.5352L7.37109 14.5703L6.62891 13.8281L5.69531 14.3047ZM10 16.0859L9.67578 15.0898H8.63281L9.48047 14.4766L9.15625 13.4766L10.0039 14.0937L10.8516 13.4766L10.5273 14.4766L11.375 15.0898H10.3281L10 16.0859ZM14.3047 14.3047L13.3672 13.8281L12.6289 14.5703L12.793 13.5352L11.8594 13.0586L12.8945 12.8945L13.0586 11.8594L13.5352 12.7969L14.5703 12.6289L13.8281 13.3711L14.3047 14.3047ZM16.0859 10L15.0898 10.3242V11.3672L14.4766 10.5195L13.4766 10.8437L14.0937 9.99609L13.4766 9.14844L14.4766 9.47266L15.0898 8.625V9.67187L16.0859 10ZM14.3047 5.69531L13.8281 6.63281L14.5703 7.37109L13.5352 7.20703L13.0586 8.14062L12.8945 7.10547L11.8594 6.94141L12.7969 6.46484L12.6289 5.42969L13.3711 6.17187L14.3047 5.69531Z" fill="#FFDA44"/>
</g>
</svg>
