<?xml version="1.0" standalone="no"?>
<!DOCTYPE svg PUBLIC "-//W3C//DTD SVG 20010904//EN"
 "http://www.w3.org/TR/2001/REC-SVG-20010904/DTD/svg10.dtd">
<svg version="1.0" xmlns="http://www.w3.org/2000/svg"
 width="446.000000pt" height="446.000000pt" viewBox="0 0 446.000000 446.000000"
 preserveAspectRatio="xMidYMid meet">
<metadata>
Created by potrace 1.14, written by Peter Selinger 2001-2017
</metadata>
<g transform="translate(0.000000,446.000000) scale(0.100000,-0.100000)"
fill="#000000" stroke="none">
<path d="M2040 4294 c-841 -63 -1496 -542 -1755 -1285 -91 -261 -128 -493
-129 -804 0 -414 68 -725 229 -1050 92 -185 177 -305 320 -454 312 -323 671
-503 1155 -578 160 -24 538 -24 700 0 667 102 1173 453 1449 1006 80 160 187
478 167 498 -4 4 -280 8 -614 8 l-607 0 -50 -84 c-104 -176 -286 -318 -471
-366 -135 -35 -318 -40 -449 -11 -200 43 -366 156 -492 338 -60 86 -129 259
-149 373 -33 197 -37 422 -8 575 9 52 18 107 18 122 1 14 4 24 8 22 3 -2 14
21 23 51 8 30 33 89 55 131 22 42 37 81 34 86 -3 4 0 7 8 6 7 -2 12 5 12 14
-1 10 2 16 6 13 4 -3 16 7 26 22 50 78 173 182 274 233 48 24 150 62 150 55 0
-3 11 0 24 5 112 42 363 30 516 -25 174 -62 323 -190 427 -367 l38 -64 595 2
c327 1 603 2 614 3 16 1 17 6 11 39 -4 20 -11 38 -15 40 -5 2 -7 9 -4 16 7 19
-69 242 -120 350 -279 593 -820 973 -1519 1066 -87 11 -391 20 -477 14z"/>
</g>
</svg>
