
    <svg viewBox="0 0 36 37" xmlns="http://www.w3.org/2000/svg">
      <g clipPath="url(#clip0_5899_6122)">
        <path d="M13 13.9754L14.6667 12.3088M14.6667 12.3088L13 10.6421M14.6667 12.3088H13C11.1591 12.3088 9.66667 13.8011 9.66667 15.6421M23 23.9754L21.3333 25.6421M21.3333 25.6421L23 27.3088M21.3333 25.6421H23C24.841 25.6421 26.3333 24.1497 26.3333 22.3088M19.181 20.1564C19.8329 20.4678 20.5627 20.6421 21.3333 20.6421C24.0948 20.6421 26.3333 18.4035 26.3333 15.6421C26.3333 12.8807 24.0948 10.6421 21.3333 10.6421C18.5719 10.6421 16.3333 12.8807 16.3333 15.6421C16.3333 16.4127 16.5077 17.1426 16.819 17.7944M19.6667 22.3088C19.6667 25.0702 17.4281 27.3088 14.6667 27.3088C11.9052 27.3088 9.66667 25.0702 9.66667 22.3088C9.66667 19.5473 11.9052 17.3088 14.6667 17.3088C17.4281 17.3088 19.6667 19.5473 19.6667 22.3088Z" stroke="currentColor" stroke-width="1.5" stroke-linecap="round" stroke-linejoin="round"/>
      </g>
      <defs>
        <clipPath id="clip0_5899_6122">
        <rect width="20" height="20" fill="white" transform="translate(8 8.97534)"/>
        </clipPath>
        </defs>
    </svg>