
    <svg viewBox="0 0 36 37" xmlns="http://www.w3.org/2000/svg">
      <path d="M22.1667 24.9995H22C20.5999 24.9995 19.8998 24.9995 19.365 24.727C18.8946 24.4873 18.5122 24.1049 18.2725 23.6345C18 23.0997 18 22.3996 18 20.9995V15.6662C18 14.266 18 13.566 18.2725 13.0312C18.5122 12.5608 18.8946 12.1783 19.365 11.9387C19.8998 11.6662 20.5999 11.6662 22 11.6662H22.1667M22.1667 24.9995C22.1667 25.92 22.9129 26.6662 23.8333 26.6662C24.7538 26.6662 25.5 25.92 25.5 24.9995C25.5 24.079 24.7538 23.3328 23.8333 23.3328C22.9129 23.3328 22.1667 24.079 22.1667 24.9995ZM22.1667 11.6662C22.1667 12.5867 22.9129 13.3328 23.8333 13.3328C24.7538 13.3328 25.5 12.5867 25.5 11.6662C25.5 10.7457 24.7538 9.99951 23.8333 9.99951C22.9129 9.99951 22.1667 10.7457 22.1667 11.6662ZM13.8333 18.3328L22.1667 18.3328M13.8333 18.3328C13.8333 19.2533 13.0871 19.9995 12.1667 19.9995C11.2462 19.9995 10.5 19.2533 10.5 18.3328C10.5 17.4124 11.2462 16.6662 12.1667 16.6662C13.0871 16.6662 13.8333 17.4124 13.8333 18.3328ZM22.1667 18.3328C22.1667 19.2533 22.9129 19.9995 23.8333 19.9995C24.7538 19.9995 25.5 19.2533 25.5 18.3328C25.5 17.4124 24.7538 16.6662 23.8333 16.6662C22.9129 16.6662 22.1667 17.4124 22.1667 18.3328Z" stroke="currentColor" stroke-width="1.5" stroke-linecap="round" stroke-linejoin="round"/>
    </svg>