<svg width="24" height="24" viewBox="0 0 16 16" fill="none" xmlns="http://www.w3.org/2000/svg">
<path d="M2.91659 12.0002V11.8668C2.91659 10.7467 2.91659 10.1867 3.13457 9.75885C3.32632 9.38252 3.63228 9.07656 4.0086 8.88482C4.43643 8.66683 4.99648 8.66683 6.11659 8.66683H10.3833C11.5034 8.66683 12.0634 8.66683 12.4912 8.88482C12.8676 9.07656 13.1735 9.38252 13.3653 9.75885C13.5833 10.1867 13.5833 10.7467 13.5833 11.8668V12.0002M2.91659 12.0002C2.18021 12.0002 1.58325 12.5971 1.58325 13.3335C1.58325 14.0699 2.18021 14.6668 2.91659 14.6668C3.65297 14.6668 4.24992 14.0699 4.24992 13.3335C4.24992 12.5971 3.65297 12.0002 2.91659 12.0002ZM13.5833 12.0002C12.8469 12.0002 12.2499 12.5971 12.2499 13.3335C12.2499 14.0699 12.8469 14.6668 13.5833 14.6668C14.3196 14.6668 14.9166 14.0699 14.9166 13.3335C14.9166 12.5971 14.3196 12.0002 13.5833 12.0002ZM8.24992 12.0002C7.51354 12.0002 6.91659 12.5971 6.91659 13.3335C6.91659 14.0699 7.51354 14.6668 8.24992 14.6668C8.9863 14.6668 9.58325 14.0699 9.58325 13.3335C9.58325 12.5971 8.9863 12.0002 8.24992 12.0002ZM8.24992 12.0002V5.3335M4.24992 5.3335H12.2499C12.8712 5.3335 13.1818 5.3335 13.4268 5.232C13.7535 5.09668 14.0131 4.83711 14.1484 4.51041C14.2499 4.26538 14.2499 3.95475 14.2499 3.3335C14.2499 2.71224 14.2499 2.40161 14.1484 2.15658C14.0131 1.82988 13.7535 1.57032 13.4268 1.43499C13.1818 1.3335 12.8712 1.3335 12.2499 1.3335H4.24992C3.62866 1.3335 3.31804 1.3335 3.07301 1.43499C2.7463 1.57032 2.48674 1.82988 2.35141 2.15658C2.24992 2.40161 2.24992 2.71224 2.24992 3.3335C2.24992 3.95475 2.24992 4.26538 2.35141 4.51041C2.48674 4.83711 2.7463 5.09668 3.07301 5.232C3.31804 5.3335 3.62866 5.3335 4.24992 5.3335Z" stroke="#8992A6" stroke-width="1.5" stroke-linecap="round" stroke-linejoin="round"/>
</svg>
