<svg width="20" height="24" viewBox="0 0 20 24" fill="none" xmlns="http://www.w3.org/2000/svg">
<path d="M12.2223 1.1884V5.77789C12.2223 6.40017 12.2223 6.71131 12.3434 6.94898C12.4499 7.15805 12.6199 7.32803 12.8289 7.43456C13.0666 7.55566 13.3778 7.55566 14 7.55566H18.5895M12.2223 17.5556H5.55559M14.4445 13.1111H5.55559M18.8889 9.76472V17.7778C18.8889 19.6446 18.8889 20.5781 18.5256 21.2911C18.206 21.9183 17.6961 22.4282 17.0689 22.7478C16.3559 23.1111 15.4224 23.1111 13.5556 23.1111H6.44448C4.57764 23.1111 3.64422 23.1111 2.93118 22.7478C2.30397 22.4282 1.79403 21.9183 1.47446 21.2911C1.11115 20.5781 1.11115 19.6446 1.11115 17.7778V6.22225C1.11115 4.35541 1.11115 3.42199 1.47446 2.70895C1.79403 2.08174 2.30397 1.57181 2.93118 1.25223C3.64422 0.888916 4.57764 0.888916 6.44448 0.888916H10.0131C10.8284 0.888916 11.2361 0.888916 11.6197 0.981016C11.9598 1.06267 12.285 1.19735 12.5832 1.38012C12.9196 1.58625 13.2078 1.87451 13.7844 2.45101L17.3268 5.99349C17.9033 6.56999 18.1916 6.85824 18.3977 7.19463C18.5805 7.49287 18.7152 7.81802 18.7968 8.15814C18.8889 8.54177 18.8889 8.94942 18.8889 9.76472Z" stroke="currentColor" stroke-width="1.5" stroke-linecap="round" stroke-linejoin="round"/>
</svg>
