
    <svg viewBox="0 0 36 37" xmlns="http://www.w3.org/2000/svg">
      <g clipPath="url(#clip0_5899_6129)">
        <path d="M19.6667 10.8667V14.3088C19.6667 14.7755 19.6667 15.0089 19.7575 15.1871C19.8374 15.3439 19.9649 15.4714 20.1217 15.5513C20.2999 15.6421 20.5333 15.6421 21 15.6421H24.4421M14.6667 21.4754V23.9754M21.3333 19.8088V23.9754M18 17.7254V23.9754M24.6667 17.2989V23.3088C24.6667 24.7089 24.6667 25.409 24.3942 25.9437C24.1545 26.4141 23.772 26.7966 23.3016 27.0363C22.7669 27.3088 22.0668 27.3088 20.6667 27.3088H15.3333C13.9332 27.3088 13.2331 27.3088 12.6984 27.0363C12.2279 26.7966 11.8455 26.4141 11.6058 25.9437C11.3333 25.409 11.3333 24.7089 11.3333 23.3088V14.6421C11.3333 13.242 11.3333 12.5419 11.6058 12.0071C11.8455 11.5367 12.2279 11.1543 12.6984 10.9146C13.2331 10.6421 13.9332 10.6421 15.3333 10.6421H18.0098C18.6213 10.6421 18.927 10.6421 19.2147 10.7112C19.4698 10.7724 19.7137 10.8734 19.9374 11.0105C20.1897 11.1651 20.4059 11.3813 20.8382 11.8137L23.4951 14.4705C23.9275 14.9029 24.1437 15.1191 24.2983 15.3714C24.4353 15.5951 24.5363 15.8389 24.5976 16.094C24.6667 16.3817 24.6667 16.6875 24.6667 17.2989Z" stroke="currentColor" stroke-width="1.5" stroke-linecap="round" stroke-linejoin="round"/>
      </g>
      <defs>
        <clipPath id="clip0_5899_6129">
          <rect width="20" height="20" fill="white" transform="translate(8 8.97534)"/>
        </clipPath>
      </defs>
    </svg>