<svg width="20" height="18" viewBox="0 0 20 20" fill="none" xmlns="http://www.w3.org/2000/svg">
<path d="M1.66667 2.83333C1.66667 2.36662 1.66667 2.13327 1.7575 1.95501C1.83739 1.79821 1.96488 1.67072 2.12168 1.59083C2.29994 1.5 2.53329 1.5 3.00001 1.5H17C17.4667 1.5 17.7001 1.5 17.8783 1.59083C18.0351 1.67072 18.1626 1.79821 18.2425 1.95501C18.3333 2.13327 18.3333 2.36662 18.3333 2.83333V3.39116C18.3333 3.61516 18.3333 3.72716 18.306 3.8313C18.2817 3.92359 18.2418 4.01103 18.1879 4.0898C18.1272 4.17869 18.0425 4.25204 17.8732 4.39875L12.5434 9.01792C12.3742 9.16462 12.2895 9.23797 12.2287 9.32687C12.1749 9.40564 12.135 9.49308 12.1107 9.58536C12.0833 9.68951 12.0833 9.80151 12.0833 10.0255V14.382C12.0833 14.5449 12.0833 14.6264 12.0571 14.6969C12.0338 14.7591 11.9961 14.8149 11.9469 14.8596C11.8912 14.9102 11.8156 14.9404 11.6643 15.001L8.83093 16.1343C8.52465 16.2568 8.3715 16.3181 8.24857 16.2925C8.14106 16.2702 8.04672 16.2063 7.98605 16.1148C7.91667 16.0101 7.91667 15.8452 7.91667 15.5153V10.0255C7.91667 9.80151 7.91667 9.68951 7.8893 9.58536C7.86504 9.49308 7.82512 9.40564 7.77126 9.32687C7.71049 9.23797 7.62585 9.16462 7.45658 9.01792L2.12676 4.39875C1.95749 4.25204 1.87286 4.17869 1.81208 4.0898C1.75823 4.01103 1.7183 3.92359 1.69404 3.8313C1.66667 3.72716 1.66667 3.61516 1.66667 3.39116V2.83333Z" stroke="currentColor" stroke-width="1.5" stroke-linecap="round" stroke-linejoin="round"/>
</svg>
