
    <svg viewBox="0 0 36 37" xmlns="http://www.w3.org/2000/svg">
      <path d="M15 10.8328H11.8333C11.3666 10.8328 11.1333 10.8328 10.955 10.9236C10.7982 11.0035 10.6707 11.131 10.5908 11.2878C10.5 11.466 10.5 11.6994 10.5 12.1661V15.3328C10.5 15.7995 10.5 16.0328 10.5908 16.2111C10.6707 16.3679 10.7982 16.4954 10.955 16.5753C11.1333 16.6661 11.3666 16.6661 11.8333 16.6661H15C15.4667 16.6661 15.7001 16.6661 15.8783 16.5753C16.0351 16.4954 16.1626 16.3679 16.2425 16.2111C16.3333 16.0328 16.3333 15.7995 16.3333 15.3328V12.1661C16.3333 11.6994 16.3333 11.466 16.2425 11.2878C16.1626 11.131 16.0351 11.0035 15.8783 10.9236C15.7001 10.8328 15.4667 10.8328 15 10.8328Z" stroke="currentColor" stroke-width="1.5" stroke-linecap="round" stroke-linejoin="round"/>
      <path d="M24.1667 10.8328H21C20.5333 10.8328 20.2999 10.8328 20.1217 10.9236C19.9649 11.0035 19.8374 11.131 19.7575 11.2878C19.6667 11.466 19.6667 11.6994 19.6667 12.1661V15.3328C19.6667 15.7995 19.6667 16.0328 19.7575 16.2111C19.8374 16.3679 19.9649 16.4954 20.1217 16.5753C20.2999 16.6661 20.5333 16.6661 21 16.6661H24.1667C24.6334 16.6661 24.8667 16.6661 25.045 16.5753C25.2018 16.4954 25.3293 16.3679 25.4092 16.2111C25.5 16.0328 25.5 15.7995 25.5 15.3328V12.1661C25.5 11.6994 25.5 11.466 25.4092 11.2878C25.3293 11.131 25.2018 11.0035 25.045 10.9236C24.8667 10.8328 24.6334 10.8328 24.1667 10.8328Z" stroke="currentColor" stroke-width="1.5" stroke-linecap="round" stroke-linejoin="round"/>
      <path d="M24.1667 19.9994H21C20.5333 19.9994 20.2999 19.9994 20.1217 20.0903C19.9649 20.1702 19.8374 20.2976 19.7575 20.4544C19.6667 20.6327 19.6667 20.8661 19.6667 21.3328V24.4994C19.6667 24.9661 19.6667 25.1995 19.7575 25.3778C19.8374 25.5346 19.9649 25.662 20.1217 25.7419C20.2999 25.8328 20.5333 25.8328 21 25.8328H24.1667C24.6334 25.8328 24.8667 25.8328 25.045 25.7419C25.2018 25.662 25.3293 25.5346 25.4092 25.3778C25.5 25.1995 25.5 24.9661 25.5 24.4994V21.3328C25.5 20.8661 25.5 20.6327 25.4092 20.4544C25.3293 20.2976 25.2018 20.1702 25.045 20.0903C24.8667 19.9994 24.6334 19.9994 24.1667 19.9994Z" stroke="currentColor" stroke-width="1.5" stroke-linecap="round" stroke-linejoin="round"/>
      <path d="M15 19.9994H11.8333C11.3666 19.9994 11.1333 19.9994 10.955 20.0903C10.7982 20.1702 10.6707 20.2976 10.5908 20.4544C10.5 20.6327 10.5 20.8661 10.5 21.3328V24.4994C10.5 24.9661 10.5 25.1995 10.5908 25.3778C10.6707 25.5346 10.7982 25.662 10.955 25.7419C11.1333 25.8328 11.3666 25.8328 11.8333 25.8328H15C15.4667 25.8328 15.7001 25.8328 15.8783 25.7419C16.0351 25.662 16.1626 25.5346 16.2425 25.3778C16.3333 25.1995 16.3333 24.9661 16.3333 24.4994V21.3328C16.3333 20.8661 16.3333 20.6327 16.2425 20.4544C16.1626 20.2976 16.0351 20.1702 15.8783 20.0903C15.7001 19.9994 15.4667 19.9994 15 19.9994Z" stroke="currentColor" stroke-width="1.5" stroke-linecap="round" stroke-linejoin="round"/>
    </svg>