<svg width="57" height="56" viewBox="0 0 57 56" fill="none" xmlns="http://www.w3.org/2000/svg">
<path d="M49.5 17.5V50.75C49.5 51.2141 49.3156 51.6592 48.9874 51.9874C48.6592 52.3156 48.2141 52.5 47.75 52.5H9.25C8.78587 52.5 8.34075 52.3156 8.01256 51.9874C7.68437 51.6592 7.5 51.2141 7.5 50.75V5.25C7.5 4.78587 7.68437 4.34075 8.01256 4.01256C8.34075 3.68437 8.78587 3.5 9.25 3.5H39C39.2776 3.50128 39.551 3.56861 39.7975 3.69641C40.0439 3.82421 40.2565 4.00883 40.4175 4.235L49.1675 16.485C49.3814 16.7804 49.4976 17.1353 49.5 17.5Z" fill="#EEEFF4"/>
<path d="M49.5 17.5V19.25H37.25C36.7859 19.25 36.3408 19.0656 36.0126 18.7374C35.6844 18.4092 35.5 17.9641 35.5 17.5V3.5H39C39.2776 3.50128 39.551 3.56861 39.7975 3.69641C40.0439 3.82421 40.2565 4.00883 40.4175 4.235L49.1675 16.485C49.3814 16.7804 49.4976 17.1353 49.5 17.5Z" fill="#F8F9FB"/>
<path d="M16.5277 11.8714C17.9635 11.8714 19.1275 10.7074 19.1275 9.27163C19.1275 7.83583 17.9635 6.67188 16.5277 6.67188C15.0919 6.67188 13.928 7.83583 13.928 9.27163C13.928 10.7074 15.0919 11.8714 16.5277 11.8714Z" fill="#D4D9E2"/>
<path d="M21.5755 14.5761C18.6508 12.1211 14.4036 12.1211 11.4789 14.5761C11.3836 14.6567 11.3281 14.7746 11.3281 14.9002C11.3281 15.3188 11.3281 16.331 11.3281 17.0719C11.3281 17.5503 11.7164 17.9376 12.1947 17.9376H20.8606C21.3389 17.9376 21.7272 17.5503 21.7272 17.0719V15.0701C21.7272 14.7746 21.6717 14.6567 21.5755 14.5761Z" fill="#D4D9E2"/>
<path d="M31.6233 26.25H12.908C12.1989 26.25 11.5189 26.0656 11.0175 25.7374C10.5161 25.4092 10.2344 24.9641 10.2344 24.5C10.2344 24.0359 10.5161 23.5908 11.0175 23.2626C11.5189 22.9344 12.1989 22.75 12.908 22.75H31.6233C32.3323 22.75 33.0124 22.9344 33.5138 23.2626C34.0152 23.5908 34.2969 24.0359 34.2969 24.5C34.2969 24.9641 34.0152 25.4092 33.5138 25.7374C33.0124 26.0656 32.3323 26.25 31.6233 26.25Z" fill="#D4D9E2"/>
<path d="M31.6233 33.25H12.908C12.1989 33.25 11.5189 33.0656 11.0175 32.7374C10.5161 32.4092 10.2344 31.9641 10.2344 31.5C10.2344 31.0359 10.5161 30.5908 11.0175 30.2626C11.5189 29.9344 12.1989 29.75 12.908 29.75H31.6233C32.3323 29.75 33.0124 29.9344 33.5138 30.2626C34.0152 30.5908 34.2969 31.0359 34.2969 31.5C34.2969 31.9641 34.0152 32.4092 33.5138 32.7374C33.0124 33.0656 32.3323 33.25 31.6233 33.25Z" fill="#D4D9E2"/>
<path d="M31.6233 40.25H12.908C12.1989 40.25 11.5189 40.0656 11.0175 39.7374C10.5161 39.4092 10.2344 38.9641 10.2344 38.5C10.2344 38.0359 10.5161 37.5908 11.0175 37.2626C11.5189 36.9344 12.1989 36.75 12.908 36.75H31.6233C32.3323 36.75 33.0124 36.9344 33.5138 37.2626C34.0152 37.5908 34.2969 38.0359 34.2969 38.5C34.2969 38.9641 34.0152 39.4092 33.5138 39.7374C33.0124 40.0656 32.3323 40.25 31.6233 40.25Z" fill="#D4D9E2"/>
<path d="M39.2478 54.9644C46.3314 54.9644 52.0738 49.222 52.0738 42.1385C52.0738 35.0549 46.3314 29.3125 39.2478 29.3125C32.1643 29.3125 26.4219 35.0549 26.4219 42.1385C26.4219 49.222 32.1643 54.9644 39.2478 54.9644Z" fill="#BABFCD"/>
<path d="M39.2478 50.3006C38.6039 50.3006 38.0818 49.7786 38.0818 49.1346V35.1426C38.0818 34.4986 38.6039 33.9766 39.2478 33.9766C39.8918 33.9766 40.4139 34.4986 40.4139 35.1426V49.1346C40.4138 49.7786 39.8918 50.3006 39.2478 50.3006Z" fill="#FAFAFA"/>
<path d="M43.9118 40.9727C43.6023 40.9733 43.3053 40.8508 43.0862 40.6322L39.2477 36.7914L35.4092 40.6322C34.9461 41.0796 34.2079 41.0667 33.7605 40.6036C33.324 40.1517 33.324 39.4353 33.7605 38.9834L38.4245 34.3194C38.8798 33.8642 39.6179 33.8642 40.0733 34.3194L44.7373 38.9834C45.1919 39.4395 45.1908 40.1778 44.7347 40.6324C44.5163 40.8503 44.2204 40.9726 43.9118 40.9727Z" fill="#FAFAFA"/>
</svg>
