
    <svg viewBox="0 0 36 37" xmlns="http://www.w3.org/2000/svg">
      <path d="M9.66669 23.3328H26.3334M9.66669 23.3328L12.1667 20.8328M9.66669 23.3328L12.1667 25.8328M26.3334 23.3328L23.8334 20.8328M26.3334 23.3328L23.8334 25.8328M16.25 17.1661C16.25 17.8104 16.7724 18.3328 17.4167 18.3328H18.5C19.1904 18.3328 19.75 17.7731 19.75 17.0828C19.75 16.3924 19.1904 15.8328 18.5 15.8328H17.5C16.8097 15.8328 16.25 15.2731 16.25 14.5828C16.25 13.8924 16.8097 13.3328 17.5 13.3328H18.5834C19.2277 13.3328 19.75 13.8551 19.75 14.4994M18 12.5828V13.3328M18 18.3328V19.0828M23 15.8328C23 18.5942 20.7614 20.8328 18 20.8328C15.2386 20.8328 13 18.5942 13 15.8328C13 13.0713 15.2386 10.8328 18 10.8328C20.7614 10.8328 23 13.0713 23 15.8328Z" stroke="currentColor" stroke-width="1.4" stroke-linecap="round" stroke-linejoin="round"/>
    </svg>