<svg width="200" height="141" viewBox="0 0 200 141" fill="none" xmlns="http://www.w3.org/2000/svg">
<path d="M162 0H42C36.4772 0 32 4.47715 32 10V130C32 135.523 36.4772 140 42 140H162C167.523 140 172 135.523 172 130V10C172 4.47715 167.523 0 162 0Z" fill="url(#paint0_linear_5292_464358)"/>
<g filter="url(#filter0_d_5292_464358)">
<path d="M54 54H189C190.326 54 191.598 54.5268 192.536 55.4645C193.473 56.4021 194 57.6739 194 59V84C194 85.3261 193.473 86.5979 192.536 87.5355C191.598 88.4732 190.326 89 189 89H54C52.6739 89 51.4021 88.4732 50.4645 87.5355C49.5268 86.5979 49 85.3261 49 84V59C49 57.6739 49.5268 56.4021 50.4645 55.4645C51.4021 54.5268 52.6739 54 54 54V54Z" fill="white"/>
</g>
<path d="M128 62H102C100.343 62 99 63.3431 99 65C99 66.6569 100.343 68 102 68H128C129.657 68 131 66.6569 131 65C131 63.3431 129.657 62 128 62Z" fill="#91C7FE"/>
<path d="M146 75H102C100.343 75 99 76.3431 99 78C99 79.6569 100.343 81 102 81H146C147.657 81 149 79.6569 149 78C149 76.3431 147.657 75 146 75Z" fill="#E3F1FE"/>
<path d="M79.5 81C84.7467 81 89 76.7467 89 71.5C89 66.2533 84.7467 62 79.5 62C74.2533 62 70 66.2533 70 71.5C70 76.7467 74.2533 81 79.5 81Z" fill="#2E90FA"/>
<path d="M78.4003 72.76H75.9683L75.5203 74H74.7523L76.7683 68.456H77.6083L79.6163 74H78.8483L78.4003 72.76ZM78.1923 72.168L77.1843 69.352L76.1763 72.168H78.1923ZM84.2229 70.056C84.2229 70.52 84.0629 70.9067 83.7429 71.216C83.4282 71.52 82.9456 71.672 82.2949 71.672H81.2229V74H80.4949V68.424H82.2949C82.9242 68.424 83.4016 68.576 83.7269 68.88C84.0576 69.184 84.2229 69.576 84.2229 70.056ZM82.2949 71.072C82.7002 71.072 82.9989 70.984 83.1909 70.808C83.3829 70.632 83.4789 70.3813 83.4789 70.056C83.4789 69.368 83.0842 69.024 82.2949 69.024H81.2229V71.072H82.2949Z" fill="white"/>
<g filter="url(#filter1_d_5292_464358)">
<path d="M11 97H146C147.326 97 148.598 97.5268 149.536 98.4645C150.473 99.4021 151 100.674 151 102V127C151 128.326 150.473 129.598 149.536 130.536C148.598 131.473 147.326 132 146 132H11C9.67392 132 8.40215 131.473 7.46447 130.536C6.52678 129.598 6 128.326 6 127V102C6 100.674 6.52678 99.4021 7.46447 98.4645C8.40215 97.5268 9.67392 97 11 97V97Z" fill="white"/>
</g>
<path d="M85 105H59C57.3431 105 56 106.343 56 108C56 109.657 57.3431 111 59 111H85C86.6569 111 88 109.657 88 108C88 106.343 86.6569 105 85 105Z" fill="#91C7FE"/>
<path d="M103 118H59C57.3431 118 56 119.343 56 121C56 122.657 57.3431 124 59 124H103C104.657 124 106 122.657 106 121C106 119.343 104.657 118 103 118Z" fill="#E3F1FE"/>
<path d="M23.5 124C28.7467 124 33 119.747 33 114.5C33 109.253 28.7467 105 23.5 105C18.2533 105 14 109.253 14 114.5C14 119.747 18.2533 124 23.5 124Z" fill="#2E90FA"/>
<path d="M22.4553 111.424V115.544C22.4553 116.003 22.3139 116.371 22.0313 116.648C21.7486 116.92 21.3753 117.056 20.9113 117.056C20.4419 117.056 20.0659 116.917 19.7833 116.64C19.5006 116.357 19.3593 115.973 19.3593 115.488H20.0872C20.0926 115.76 20.1619 115.981 20.2953 116.152C20.4339 116.323 20.6393 116.408 20.9113 116.408C21.1833 116.408 21.3859 116.328 21.5193 116.168C21.6526 116.003 21.7193 115.795 21.7193 115.544V111.424H22.4553ZM25.6574 117.056C25.2894 117.056 24.9588 116.992 24.6654 116.864C24.3774 116.731 24.1508 116.549 23.9854 116.32C23.8201 116.085 23.7348 115.816 23.7294 115.512H24.5054C24.5321 115.773 24.6388 115.995 24.8254 116.176C25.0174 116.352 25.2948 116.44 25.6574 116.44C26.0041 116.44 26.2761 116.355 26.4734 116.184C26.6761 116.008 26.7774 115.784 26.7774 115.512C26.7774 115.299 26.7188 115.125 26.6014 114.992C26.4841 114.859 26.3374 114.757 26.1614 114.688C25.9854 114.619 25.7481 114.544 25.4494 114.464C25.0814 114.368 24.7854 114.272 24.5614 114.176C24.3428 114.08 24.1534 113.931 23.9934 113.728C23.8388 113.52 23.7614 113.243 23.7614 112.896C23.7614 112.592 23.8388 112.323 23.9934 112.088C24.1481 111.853 24.3641 111.672 24.6414 111.544C24.9241 111.416 25.2468 111.352 25.6094 111.352C26.1321 111.352 26.5588 111.483 26.8894 111.744C27.2254 112.005 27.4148 112.352 27.4574 112.784H26.6574C26.6308 112.571 26.5188 112.384 26.3214 112.224C26.1241 112.059 25.8628 111.976 25.5374 111.976C25.2334 111.976 24.9854 112.056 24.7934 112.216C24.6014 112.371 24.5054 112.589 24.5054 112.872C24.5054 113.075 24.5614 113.24 24.6734 113.368C24.7908 113.496 24.9321 113.595 25.0974 113.664C25.2681 113.728 25.5054 113.803 25.8094 113.888C26.1774 113.989 26.4734 114.091 26.6974 114.192C26.9214 114.288 27.1134 114.44 27.2734 114.648C27.4334 114.851 27.5134 115.128 27.5134 115.48C27.5134 115.752 27.4414 116.008 27.2974 116.248C27.1534 116.488 26.9401 116.683 26.6574 116.832C26.3748 116.981 26.0414 117.056 25.6574 117.056Z" fill="white"/>
<g filter="url(#filter2_d_5292_464358)">
<path d="M146 11H11C8.23858 11 6 13.2386 6 16V41C6 43.7614 8.23858 46 11 46H146C148.761 46 151 43.7614 151 41V16C151 13.2386 148.761 11 146 11Z" fill="white"/>
</g>
<path d="M83 19H57C55.3431 19 54 20.3431 54 22C54 23.6569 55.3431 25 57 25H83C84.6569 25 86 23.6569 86 22C86 20.3431 84.6569 19 83 19Z" fill="#91C7FE"/>
<path d="M101 32H57C55.3431 32 54 33.3431 54 35C54 36.6569 55.3431 38 57 38H101C102.657 38 104 36.6569 104 35C104 33.3431 102.657 32 101 32Z" fill="#E3F1FE"/>
<path d="M36.5 38C41.7467 38 46 33.7467 46 28.5C46 23.2533 41.7467 19 36.5 19C31.2533 19 27 23.2533 27 28.5C27 33.7467 31.2533 38 36.5 38Z" fill="#2E90FA"/>
<path d="M33.7082 31.056C33.3402 31.056 33.0096 30.992 32.7162 30.864C32.4282 30.7307 32.2016 30.5493 32.0362 30.32C31.8709 30.0853 31.7856 29.816 31.7802 29.512H32.5562C32.5829 29.7733 32.6896 29.9947 32.8762 30.176C33.0682 30.352 33.3456 30.44 33.7082 30.44C34.0549 30.44 34.3269 30.3547 34.5242 30.184C34.7269 30.008 34.8282 29.784 34.8282 29.512C34.8282 29.2987 34.7696 29.1253 34.6522 28.992C34.5349 28.8587 34.3882 28.7573 34.2122 28.688C34.0362 28.6187 33.7989 28.544 33.5002 28.464C33.1322 28.368 32.8362 28.272 32.6122 28.176C32.3936 28.08 32.2042 27.9307 32.0442 27.728C31.8896 27.52 31.8122 27.2427 31.8122 26.896C31.8122 26.592 31.8896 26.3227 32.0442 26.088C32.1989 25.8533 32.4149 25.672 32.6922 25.544C32.9749 25.416 33.2976 25.352 33.6602 25.352C34.1829 25.352 34.6096 25.4827 34.9402 25.744C35.2762 26.0053 35.4656 26.352 35.5082 26.784H34.7082C34.6816 26.5707 34.5696 26.384 34.3722 26.224C34.1749 26.0587 33.9136 25.976 33.5882 25.976C33.2842 25.976 33.0362 26.056 32.8442 26.216C32.6522 26.3707 32.5562 26.5893 32.5562 26.872C32.5562 27.0747 32.6122 27.24 32.7242 27.368C32.8416 27.496 32.9829 27.5947 33.1482 27.664C33.3189 27.728 33.5562 27.8027 33.8602 27.888C34.2282 27.9893 34.5242 28.0907 34.7482 28.192C34.9722 28.288 35.1642 28.44 35.3242 28.648C35.4842 28.8507 35.5642 29.128 35.5642 29.48C35.5642 29.752 35.4922 30.008 35.3482 30.248C35.2042 30.488 34.9909 30.6827 34.7082 30.832C34.4256 30.9813 34.0922 31.056 33.7082 31.056ZM38.3715 25.424C38.9795 25.424 39.5049 25.5387 39.9475 25.768C40.3955 25.992 40.7369 26.3147 40.9715 26.736C41.2115 27.1573 41.3315 27.6533 41.3315 28.224C41.3315 28.7947 41.2115 29.2907 40.9715 29.712C40.7369 30.128 40.3955 30.448 39.9475 30.672C39.5049 30.8907 38.9795 31 38.3715 31H36.6355V25.424H38.3715ZM38.3715 30.4C39.0915 30.4 39.6409 30.2107 40.0195 29.832C40.3982 29.448 40.5875 28.912 40.5875 28.224C40.5875 27.5307 40.3955 26.9893 40.0115 26.6C39.6329 26.2107 39.0862 26.016 38.3715 26.016H37.3635V30.4H38.3715Z" fill="white"/>
<defs>
<filter id="filter0_d_5292_464358" x="43" y="51" width="157" height="47" filterUnits="userSpaceOnUse" color-interpolation-filters="sRGB">
<feFlood flood-opacity="0" result="BackgroundImageFix"/>
<feColorMatrix in="SourceAlpha" type="matrix" values="0 0 0 0 0 0 0 0 0 0 0 0 0 0 0 0 0 0 127 0" result="hardAlpha"/>
<feOffset dy="3"/>
<feGaussianBlur stdDeviation="3"/>
<feColorMatrix type="matrix" values="0 0 0 0 0 0 0 0 0 0 0 0 0 0 0 0 0 0 0.161 0"/>
<feBlend mode="normal" in2="BackgroundImageFix" result="effect1_dropShadow_5292_464358"/>
<feBlend mode="normal" in="SourceGraphic" in2="effect1_dropShadow_5292_464358" result="shape"/>
</filter>
<filter id="filter1_d_5292_464358" x="0" y="94" width="157" height="47" filterUnits="userSpaceOnUse" color-interpolation-filters="sRGB">
<feFlood flood-opacity="0" result="BackgroundImageFix"/>
<feColorMatrix in="SourceAlpha" type="matrix" values="0 0 0 0 0 0 0 0 0 0 0 0 0 0 0 0 0 0 127 0" result="hardAlpha"/>
<feOffset dy="3"/>
<feGaussianBlur stdDeviation="3"/>
<feColorMatrix type="matrix" values="0 0 0 0 0 0 0 0 0 0 0 0 0 0 0 0 0 0 0.161 0"/>
<feBlend mode="normal" in2="BackgroundImageFix" result="effect1_dropShadow_5292_464358"/>
<feBlend mode="normal" in="SourceGraphic" in2="effect1_dropShadow_5292_464358" result="shape"/>
</filter>
<filter id="filter2_d_5292_464358" x="0" y="8" width="157" height="47" filterUnits="userSpaceOnUse" color-interpolation-filters="sRGB">
<feFlood flood-opacity="0" result="BackgroundImageFix"/>
<feColorMatrix in="SourceAlpha" type="matrix" values="0 0 0 0 0 0 0 0 0 0 0 0 0 0 0 0 0 0 127 0" result="hardAlpha"/>
<feOffset dy="3"/>
<feGaussianBlur stdDeviation="3"/>
<feColorMatrix type="matrix" values="0 0 0 0 0 0 0 0 0 0 0 0 0 0 0 0 0 0 0.161 0"/>
<feBlend mode="normal" in2="BackgroundImageFix" result="effect1_dropShadow_5292_464358"/>
<feBlend mode="normal" in="SourceGraphic" in2="effect1_dropShadow_5292_464358" result="shape"/>
</filter>
<linearGradient id="paint0_linear_5292_464358" x1="102" y1="0" x2="102" y2="140" gradientUnits="userSpaceOnUse">
<stop stop-color="#E3ECFA"/>
<stop offset="1" stop-color="#DAE7FF"/>
</linearGradient>
</defs>
</svg>
