<svg width="24" height="24" viewBox="0 0 14 14" fill="none" xmlns="http://www.w3.org/2000/svg">
<path d="M0.75 7H12.75M3.95 1H9.55C10.6701 1 11.2302 1 11.658 1.21799C12.0343 1.40973 12.3403 1.71569 12.532 2.09202C12.75 2.51984 12.75 3.0799 12.75 4.2V9.8C12.75 10.9201 12.75 11.4802 12.532 11.908C12.3403 12.2843 12.0343 12.5903 11.658 12.782C11.2302 13 10.6701 13 9.55 13H3.95C2.82989 13 2.26984 13 1.84202 12.782C1.46569 12.5903 1.15973 12.2843 0.967987 11.908C0.75 11.4802 0.75 10.9201 0.75 9.8V4.2C0.75 3.07989 0.75 2.51984 0.967987 2.09202C1.15973 1.71569 1.46569 1.40973 1.84202 1.21799C2.26984 1 2.8299 1 3.95 1Z" stroke="#004EDA" stroke-width="1.5" stroke-linecap="round" stroke-linejoin="round"/>
</svg>
