
    <svg viewBox="0 0 36 37" xmlns="http://www.w3.org/2000/svg">
      <g clipPath="url(#clip0_5899_6136)">
        <path d="M18 21.4754C19.3807 21.4754 20.5 20.3561 20.5 18.9754C20.5 17.5947 19.3807 16.4754 18 16.4754C16.6193 16.4754 15.5 17.5947 15.5 18.9754C15.5 20.3561 16.6193 21.4754 18 21.4754Z" stroke="currentColor" stroke-width="1.5" stroke-linecap="round" stroke-linejoin="round"/>
        <path d="M23.6061 21.2482C23.5052 21.4766 23.4751 21.7301 23.5197 21.9759C23.5643 22.2216 23.6814 22.4484 23.8561 22.6269L23.9015 22.6724C24.0424 22.8131 24.1542 22.9802 24.2304 23.1642C24.3066 23.3481 24.3459 23.5452 24.3459 23.7444C24.3459 23.9435 24.3066 24.1406 24.2304 24.3246C24.1542 24.5085 24.0424 24.6756 23.9015 24.8163C23.7608 24.9572 23.5937 25.069 23.4098 25.1452C23.2258 25.2215 23.0287 25.2607 22.8296 25.2607C22.6304 25.2607 22.4333 25.2215 22.2493 25.1452C22.0654 25.069 21.8983 24.9572 21.7576 24.8163L21.7121 24.7709C21.5336 24.5962 21.3068 24.4791 21.0611 24.4345C20.8153 24.39 20.5618 24.42 20.3333 24.5209C20.1093 24.6169 19.9182 24.7764 19.7836 24.9796C19.649 25.1829 19.5767 25.421 19.5758 25.6648V25.7936C19.5758 26.1954 19.4161 26.5808 19.132 26.865C18.8478 27.1491 18.4625 27.3088 18.0606 27.3088C17.6588 27.3088 17.2734 27.1491 16.9892 26.865C16.7051 26.5808 16.5455 26.1954 16.5455 25.7936V25.7254C16.5396 25.4747 16.4584 25.2315 16.3125 25.0275C16.1666 24.8235 15.9627 24.6681 15.7273 24.5815C15.4988 24.4806 15.2453 24.4506 14.9996 24.4951C14.7538 24.5397 14.527 24.6568 14.3485 24.8315L14.303 24.8769C14.1623 25.0178 13.9952 25.1296 13.8113 25.2058C13.6273 25.2821 13.4302 25.3213 13.2311 25.3213C13.032 25.3213 12.8348 25.2821 12.6509 25.2058C12.4669 25.1296 12.2998 25.0178 12.1591 24.8769C12.0182 24.7362 11.9065 24.5691 11.8302 24.3852C11.754 24.2012 11.7147 24.0041 11.7147 23.805C11.7147 23.6059 11.754 23.4087 11.8302 23.2248C11.9065 23.0408 12.0182 22.8737 12.1591 22.733L12.2046 22.6875C12.3792 22.509 12.4964 22.2822 12.5409 22.0365C12.5855 21.7907 12.5554 21.5373 12.4546 21.3088C12.3585 21.0847 12.1991 20.8936 11.9958 20.759C11.7926 20.6244 11.5544 20.5522 11.3106 20.5512H11.1818C10.78 20.5512 10.3946 20.3915 10.1104 20.1074C9.8263 19.8233 9.66667 19.4379 9.66667 19.036C9.66667 18.6342 9.8263 18.2488 10.1104 17.9647C10.3946 17.6805 10.78 17.5209 11.1818 17.5209H11.25C11.5008 17.515 11.7439 17.4338 11.948 17.2879C12.152 17.142 12.3074 16.9381 12.3939 16.7027C12.4948 16.4742 12.5249 16.2207 12.4803 15.975C12.4358 15.7292 12.3186 15.5025 12.1439 15.3239L12.0985 15.2785C11.9576 15.1377 11.8459 14.9706 11.7696 14.7867C11.6934 14.6028 11.6541 14.4056 11.6541 14.2065C11.6541 14.0074 11.6934 13.8102 11.7696 13.6263C11.8459 13.4423 11.9576 13.2752 12.0985 13.1345C12.2392 12.9936 12.4063 12.8819 12.5902 12.8056C12.7742 12.7294 12.9713 12.6901 13.1705 12.6901C13.3696 12.6901 13.5667 12.7294 13.7507 12.8056C13.9346 12.8819 14.1017 12.9936 14.2424 13.1345L14.2879 13.18C14.4664 13.3546 14.6932 13.4718 14.939 13.5163C15.1847 13.5609 15.4382 13.5308 15.6667 13.43H15.7273C15.9513 13.3339 16.1424 13.1745 16.277 12.9712C16.4116 12.768 16.4839 12.5298 16.4849 12.286V12.1572C16.4849 11.7554 16.6445 11.37 16.9286 11.0859C17.2128 10.8017 17.5982 10.6421 18 10.6421C18.4018 10.6421 18.7872 10.8017 19.0714 11.0859C19.3555 11.37 19.5152 11.7554 19.5152 12.1572V12.2254C19.5161 12.4692 19.5884 12.7074 19.723 12.9106C19.8576 13.1139 20.0487 13.2733 20.2727 13.3694C20.5012 13.4702 20.7547 13.5003 21.0005 13.4557C21.2462 13.4112 21.473 13.294 21.6515 13.1194L21.697 13.0739C21.8377 12.933 22.0048 12.8213 22.1887 12.745C22.3727 12.6688 22.5698 12.6295 22.7689 12.6295C22.9681 12.6295 23.1652 12.6688 23.3492 12.745C23.5331 12.8213 23.7002 12.933 23.8409 13.0739C23.9818 13.2146 24.0935 13.3817 24.1698 13.5657C24.246 13.7496 24.2853 13.9468 24.2853 14.1459C24.2853 14.345 24.246 14.5422 24.1698 14.7261C24.0935 14.91 23.9818 15.0771 23.8409 15.2178L23.7955 15.2633C23.6208 15.4418 23.5037 15.6686 23.4591 15.9144C23.4145 16.1601 23.4446 16.4136 23.5455 16.6421V16.7027C23.6415 16.9268 23.8009 17.1179 24.0042 17.2525C24.2074 17.3871 24.4456 17.4593 24.6894 17.4603H24.8182C25.22 17.4603 25.6054 17.6199 25.8896 17.904C26.1737 18.1882 26.3333 18.5736 26.3333 18.9754C26.3333 19.3773 26.1737 19.7627 25.8896 20.0468C25.6054 20.3309 25.22 20.4906 24.8182 20.4906H24.75C24.5062 20.4915 24.2681 20.5638 24.0648 20.6984C23.8616 20.833 23.7021 21.0241 23.6061 21.2482Z" stroke="currentColor" stroke-width="1.5" stroke-linecap="round" stroke-linejoin="round"/>
      </g>
      <defs>
        <clipPath id="clip0_5899_6136">
        <rect width="20" height="20" fill="white" transform="translate(8 8.97534)"/>
        </clipPath>
      </defs>
    </svg>