<svg width="16" height="14" viewBox="0 0 16 14" fill="none" xmlns="http://www.w3.org/2000/svg">
<path d="M5.13109 13.1161C4.8924 13.0115 4.67575 12.8582 4.49366 12.6651L0.732799 8.70866C0.363954 8.32064 0.156738 7.79436 0.156738 7.24561C0.156738 6.69686 0.363954 6.17059 0.732799 5.78256C1.10165 5.39454 1.60191 5.17655 2.12353 5.17655C2.64516 5.17655 3.14542 5.39454 3.51427 5.78256L5.88439 8.29653L12.4855 1.3316C12.8543 0.943575 13.3546 0.725586 13.8762 0.725586C14.3978 0.725586 14.8981 0.943575 15.267 1.3316C15.6358 1.71962 15.843 2.2459 15.843 2.79465C15.843 3.3434 15.6358 3.86967 15.267 4.2577L7.27513 12.6651C7.09303 12.8582 6.87639 13.0115 6.63769 13.1161C6.399 13.2207 6.14298 13.2746 5.88439 13.2746C5.62581 13.2746 5.36979 13.2207 5.13109 13.1161Z" fill="white"/>
</svg>
